<svg xmlns="http://www.w3.org/2000/svg" width="280.276" height="106.989" viewBox="0 0 280.276 106.989"><g transform="translate(13170.1 640.4)"><g transform="translate(-13072.003 -615.463)"><g transform="translate(0 36.065)"><path d="M229.565,213.349l-2.156,5.9H213.8L231.317,174.2h15.092L264.2,219.248h-13.34l-2.156-5.9Zm3.5-10.055h11.993L239.133,186.4Z" transform="translate(-213.8 -174.066)" fill="#0081c8"/><path d="M252.9,219.282v-9.519l20.077-24.4H253.843V174.1H290.9v9.653L271.226,208.02h20.482v11.262Z" transform="translate(-200.214 -174.1)" fill="#0081c8"/><path d="M300.826,206.243a7.173,7.173,0,0,0,4.986,1.877,6.942,6.942,0,0,0,4.986-1.877c1.347-1.207,1.886-3.084,1.886-5.631V174.2h13.34v27.216c0,6.033-1.886,10.592-5.659,13.809s-8.624,4.827-14.553,4.827-10.78-1.609-14.553-4.827-5.659-7.91-5.659-13.809V174.2h13.34v26.412C298.94,203.159,299.614,205.036,300.826,206.243Z" transform="translate(-188.851 -174.066)" fill="#0081c8"/><path d="M321.3,219.248V174.2h13.34v33.92h23.985v11.262H321.3Z" transform="translate(-176.446 -174.066)" fill="#0081c8"/></g><g transform="translate(15.957 0)"><path d="M224.9,162.926v-3.62c0-3.888,2.291-7.106,7.276-7.106,3.234,0,5.39,1.475,5.39,2.547,0,.67-.539,1.475-1.213,1.475s-1.347-1.207-3.908-1.207c-2.964,0-4.447,1.609-4.447,4.29v3.62c0,2.681,1.482,4.29,4.447,4.29,2.695,0,3.234-1.341,4.042-1.341a1.464,1.464,0,0,1,1.347,1.475c0,1.073-2.291,2.547-5.525,2.547C227.191,170.031,224.9,166.948,224.9,162.926Z" transform="translate(-224.9 -145.496)" fill="#0081c8"/><path d="M249.14,159.34v9.251c0,.67-.674,1.073-1.482,1.073a1.231,1.231,0,0,1-1.347-1.073v-1.475a7.208,7.208,0,0,1-5.525,2.815c-2.695,0-4.986-1.475-4.986-4.827,0-4.022,3.5-5.095,8.489-5.095h1.752v-.8c0-2.145-1.078-4.558-4.042-4.558-2.56,0-3.369,1.073-4.042,1.073s-1.078-.938-1.078-1.475c0-1.073,2.83-2.145,5.255-2.145C247.254,152.368,249.14,155.72,249.14,159.34Zm-2.964,2.681h-1.213c-3.1,0-5.929.268-5.929,2.816a2.51,2.51,0,0,0,2.83,2.681c2.021,0,4.447-2.011,4.447-3.754v-1.743Z" transform="translate(-221.112 -145.531)" fill="#0081c8"/><path d="M252.064,148.373v21.854c0,.536-.674,1.073-1.482,1.073-.943,0-1.482-.536-1.482-1.073V148.373c0-.67.674-1.073,1.482-1.073S252.064,147.836,252.064,148.373Z" transform="translate(-216.491 -147.166)" fill="#0081c8"/><path d="M268.549,158.938c0,2.95-1.617,2.95-3.234,2.95h-7.95v1.073c0,2.681,2.156,4.424,5.255,4.424,2.695,0,3.5-1.475,4.447-1.475a1.428,1.428,0,0,1,1.213,1.341c0,.938-2.291,2.547-5.794,2.547-4.716,0-8.085-2.815-8.085-7.106v-3.754a7.067,7.067,0,0,1,7.276-6.838C265.18,152.368,268.549,155.05,268.549,158.938Zm-4.581,1.073c1.213,0,1.617-.268,1.617-1.207a4.186,4.186,0,0,0-4.177-4.156,4.075,4.075,0,0,0-4.177,4.022v1.341Z" transform="translate(-214.649 -145.531)" fill="#0081c8"/><path d="M270.364,168.657c0,.536-.674,1.073-1.482,1.073-.943,0-1.482-.536-1.482-1.073V153.641c0-.67.674-1.073,1.482-1.073a1.223,1.223,0,0,1,1.347,1.073v1.475a5.226,5.226,0,0,1,4.851-2.816c3.5,0,6.468,3.218,6.468,6.972v9.385c0,.67-.809,1.073-1.482,1.073s-1.482-.4-1.482-1.073v-9.385a4.4,4.4,0,0,0-4.177-4.29,4.107,4.107,0,0,0-4.042,4.29v9.385Z" transform="translate(-210.132 -145.462)" fill="#0081c8"/><path d="M294.783,148.407V170.26c0,.536-.674,1.073-1.482,1.073a1.231,1.231,0,0,1-1.347-1.073v-1.475a5.78,5.78,0,0,1-4.986,2.815c-3.369,0-6.468-3.352-6.468-7.106v-3.754a6.862,6.862,0,0,1,6.6-6.972,5.547,5.547,0,0,1,4.851,2.816v-8.312c0-.67.674-1.073,1.482-1.073C294.244,147.334,294.783,147.87,294.783,148.407Zm-11.319,16.223a4.4,4.4,0,0,0,4.177,4.29c2.425,0,4.177-2.413,4.177-3.352v-4.692a4.133,4.133,0,0,0-4.177-4.29,4.4,4.4,0,0,0-4.177,4.29Z" transform="translate(-205.58 -147.2)" fill="#0081c8"/><path d="M306.84,160.907v9.251c0,.67-.674,1.073-1.482,1.073a1.231,1.231,0,0,1-1.347-1.073v-1.475a7.208,7.208,0,0,1-5.525,2.815c-2.695,0-4.986-1.475-4.986-4.827,0-4.022,3.5-5.095,8.489-5.095h1.752v-.8c0-2.145-1.078-4.558-4.042-4.558-2.56,0-3.369,1.073-4.042,1.073s-1.078-.938-1.078-1.475c0-1.073,2.83-2.145,5.255-2.145C304.954,153.935,306.84,157.287,306.84,160.907Zm-2.964,2.681h-1.213c-3.1,0-5.929.268-5.929,2.816a2.51,2.51,0,0,0,2.83,2.681c2.021,0,4.447-2.011,4.447-3.754v-1.743Zm-4.851-11.8a.5.5,0,0,1-.4.134,1.176,1.176,0,0,1-1.078-1.207.834.834,0,0,1,.539-.8l4.312-2.279c.135,0,.27-.134.4-.134a1.176,1.176,0,0,1,1.078,1.207,1.16,1.16,0,0,1-.539.939Z" transform="translate(-201.063 -147.098)" fill="#0081c8"/><path d="M314.146,154.947c-2.291,0-4.581,2.011-4.581,5.363v8.312c0,.536-.674,1.073-1.482,1.073-.943,0-1.482-.536-1.482-1.073V153.607c0-.67.674-1.073,1.482-1.073s1.347.4,1.347,1.073v1.743a5.607,5.607,0,0,1,4.716-2.95h1.213a1.347,1.347,0,0,1,0,2.681h-1.213Z" transform="translate(-196.511 -145.428)" fill="#0081c8"/><path d="M319.273,149.343a1.892,1.892,0,1,1-1.886-1.743A2.013,2.013,0,0,1,319.273,149.343ZM319,155.108v15.016c0,.536-.674,1.073-1.482,1.073s-1.482-.536-1.482-1.073V155.108c0-.67.674-1.073,1.482-1.073S319,154.572,319,155.108Z" transform="translate(-193.419 -147.064)" fill="#0081c8"/><path d="M335.218,159.272v3.754a7.477,7.477,0,0,1-7.276,7.106,7.26,7.26,0,0,1-7.142-7.106v-3.754a7.213,7.213,0,0,1,14.418,0Zm-3.1,0a4.179,4.179,0,1,0-8.354,0v3.754a4.3,4.3,0,0,0,4.177,4.29,4.4,4.4,0,0,0,4.177-4.29Z" transform="translate(-191.577 -145.462)" fill="#0081c8"/></g></g><g transform="translate(-13170.1 -640.4)"><path d="M216.635,128.6A16.033,16.033,0,0,0,200.6,144.554v8.983H184.7v6.838h15.9v16.759h6.872V160.375H216.5a16.033,16.033,0,0,0,16.035-15.954A15.8,15.8,0,0,0,216.635,128.6Zm0,25.071h-9.028v-8.983a9.028,9.028,0,1,1,9.028,8.983Z" transform="translate(-125.815 -128.6)" fill="#00aeef"/><g transform="translate(0 25.071)"><path d="M215.65,228.547H148.007A7.027,7.027,0,0,1,141,221.575v-67.3a7.027,7.027,0,0,1,7.007-6.972h45.68v6.838H148.007a.132.132,0,0,0-.135.134v67.3a.132.132,0,0,0,.135.134H215.65a.132.132,0,0,0,.135-.134V176.662h6.872v44.914A7.027,7.027,0,0,1,215.65,228.547Z" transform="translate(-141 -147.3)" fill="#0081c8"/><g transform="translate(14.149 14.748)"><path d="M159.181,167.015h-6.6a1.156,1.156,0,0,1-1.078-1.073v-6.569a1.156,1.156,0,0,1,1.078-1.073h6.6a1.156,1.156,0,0,1,1.078,1.073v6.569C160.124,166.612,159.72,167.015,159.181,167.015Z" transform="translate(-151.5 -158.3)" fill="#0081c8"/><path d="M170.181,167.015h-6.6a1.156,1.156,0,0,1-1.078-1.073v-6.569a1.156,1.156,0,0,1,1.078-1.073h6.6a1.156,1.156,0,0,1,1.078,1.073v6.569A.989.989,0,0,1,170.181,167.015Z" transform="translate(-147.678 -158.3)" fill="#0081c8"/><path d="M181.281,167.015h-6.6a1.156,1.156,0,0,1-1.078-1.073v-6.569a1.156,1.156,0,0,1,1.078-1.073h6.6a1.156,1.156,0,0,1,1.078,1.073v6.569A1.06,1.06,0,0,1,181.281,167.015Z" transform="translate(-143.821 -158.3)" fill="#0081c8"/><path d="M192.381,167.015h-6.6a1.156,1.156,0,0,1-1.078-1.073v-6.569a1.156,1.156,0,0,1,1.078-1.073h6.6a1.156,1.156,0,0,1,1.078,1.073v6.569A1.06,1.06,0,0,1,192.381,167.015Z" transform="translate(-139.964 -158.3)" fill="#0081c8"/></g><g transform="translate(14.149 29.227)"><path d="M159.181,177.815h-6.6a1.156,1.156,0,0,1-1.078-1.073v-6.569a1.156,1.156,0,0,1,1.078-1.073h6.6a1.156,1.156,0,0,1,1.078,1.073v6.569C160.124,177.412,159.72,177.815,159.181,177.815Z" transform="translate(-151.5 -169.1)" fill="#0081c8"/><path d="M170.181,177.815h-6.6a1.156,1.156,0,0,1-1.078-1.073v-6.569a1.156,1.156,0,0,1,1.078-1.073h6.6a1.156,1.156,0,0,1,1.078,1.073v6.569A.989.989,0,0,1,170.181,177.815Z" transform="translate(-147.678 -169.1)" fill="#0081c8"/><path d="M181.281,177.815h-6.6a1.156,1.156,0,0,1-1.078-1.073v-6.569a1.156,1.156,0,0,1,1.078-1.073h6.6a1.156,1.156,0,0,1,1.078,1.073v6.569A1.06,1.06,0,0,1,181.281,177.815Z" transform="translate(-143.821 -169.1)" fill="#0081c8"/><path d="M192.381,177.815h-6.6a1.156,1.156,0,0,1-1.078-1.073v-6.569a1.156,1.156,0,0,1,1.078-1.073h6.6a1.156,1.156,0,0,1,1.078,1.073v6.569A1.06,1.06,0,0,1,192.381,177.815Z" transform="translate(-139.964 -169.1)" fill="#0081c8"/></g><g transform="translate(14.149 43.707)"><path d="M159.181,188.615h-6.6a1.156,1.156,0,0,1-1.078-1.073v-6.569a1.156,1.156,0,0,1,1.078-1.073h6.6a1.156,1.156,0,0,1,1.078,1.073v6.569C160.124,188.212,159.72,188.615,159.181,188.615Z" transform="translate(-151.5 -179.9)" fill="#0081c8"/><path d="M170.181,188.615h-6.6a1.156,1.156,0,0,1-1.078-1.073v-6.569a1.156,1.156,0,0,1,1.078-1.073h6.6a1.156,1.156,0,0,1,1.078,1.073v6.569A.989.989,0,0,1,170.181,188.615Z" transform="translate(-147.678 -179.9)" fill="#0081c8"/><path d="M181.281,188.615h-6.6a1.156,1.156,0,0,1-1.078-1.073v-6.569a1.156,1.156,0,0,1,1.078-1.073h6.6a1.156,1.156,0,0,1,1.078,1.073v6.569A1.06,1.06,0,0,1,181.281,188.615Z" transform="translate(-143.821 -179.9)" fill="#0081c8"/><path d="M192.381,188.615h-6.6a1.156,1.156,0,0,1-1.078-1.073v-6.569a1.156,1.156,0,0,1,1.078-1.073h6.6a1.156,1.156,0,0,1,1.078,1.073v6.569A1.06,1.06,0,0,1,192.381,188.615Z" transform="translate(-139.964 -179.9)" fill="#0081c8"/></g><g transform="translate(14.149 58.187)"><path d="M159.181,199.415h-6.6a1.156,1.156,0,0,1-1.078-1.073v-6.569a1.156,1.156,0,0,1,1.078-1.073h6.6a1.156,1.156,0,0,1,1.078,1.073v6.569C160.124,198.878,159.72,199.415,159.181,199.415Z" transform="translate(-151.5 -190.7)" fill="#0081c8"/><path d="M170.181,199.415h-6.6a1.156,1.156,0,0,1-1.078-1.073v-6.569a1.156,1.156,0,0,1,1.078-1.073h6.6a1.156,1.156,0,0,1,1.078,1.073v6.569A1.06,1.06,0,0,1,170.181,199.415Z" transform="translate(-147.678 -190.7)" fill="#0081c8"/><path d="M181.281,199.415h-6.6a1.156,1.156,0,0,1-1.078-1.073v-6.569a1.156,1.156,0,0,1,1.078-1.073h6.6a1.156,1.156,0,0,1,1.078,1.073v6.569A1.156,1.156,0,0,1,181.281,199.415Z" transform="translate(-143.821 -190.7)" fill="#0081c8"/><path d="M192.381,199.415h-6.6a1.156,1.156,0,0,1-1.078-1.073v-6.569a1.156,1.156,0,0,1,1.078-1.073h6.6a1.156,1.156,0,0,1,1.078,1.073v6.569A1.156,1.156,0,0,1,192.381,199.415Z" transform="translate(-139.964 -190.7)" fill="#0081c8"/></g></g><rect width="6.872" height="3.754" transform="translate(74.785 31.909)" fill="#0081c8"/></g></g></svg>