<svg xmlns="http://www.w3.org/2000/svg" width="19.999" height="19.276" viewBox="0 0 19.999 19.276">
  <path id="Caminho_1818" data-name="Caminho 1818" d="M2,12a10.036,10.036,0,0,1,.316-2.5A3,3,0,0,0,4.99,4.867a9.99,9.99,0,0,1,4.335-2.5,3,3,0,0,0,5.348,0,9.99,9.99,0,0,1,4.335,2.5A3,3,0,0,0,21.683,9.5a10.075,10.075,0,0,1,0,5.007,3,3,0,0,0-2.675,4.629,9.99,9.99,0,0,1-4.335,2.505,3,3,0,0,0-5.348,0A9.99,9.99,0,0,1,4.99,19.133,3,3,0,0,0,2.315,14.5,10.056,10.056,0,0,1,2,12Zm4.8,3a5,5,0,0,1,.564,3.524,8.007,8.007,0,0,0,1.3.75,5,5,0,0,1,6.67,0,8.007,8.007,0,0,0,1.3-.75,5,5,0,0,1,3.334-5.774,8.126,8.126,0,0,0,0-1.5,5,5,0,0,1-3.335-5.774,7.989,7.989,0,0,0-1.3-.75,5,5,0,0,1-6.669,0,7.99,7.99,0,0,0-1.3.75A5,5,0,0,1,4.034,11.25a8.126,8.126,0,0,0,0,1.5A4.993,4.993,0,0,1,6.805,15ZM12,15a3,3,0,1,1,3-3A3,3,0,0,1,12,15Zm0-2a1,1,0,1,0-1-1A1,1,0,0,0,12,13Z" transform="translate(-2 -2.362)" fill="#fff"/>
</svg>
