<svg xmlns="http://www.w3.org/2000/svg" width="28.852" height="28.852" viewBox="0 0 28.852 28.852">
  <g id="Grupo_889" data-name="Grupo 889" transform="translate(-170.023 -606)">
    <g id="Grupo_882" data-name="Grupo 882" transform="translate(171.023 607)">
      <g id="Grupo_888" data-name="Grupo 888">
        <g id="Grupo_878" data-name="Grupo 878">
          <g id="Grupo_875" data-name="Grupo 875" transform="translate(0 0)">
            <g id="Grupo_874" data-name="Grupo 874">
              <path id="Path_611_1_" d="M25.042,7h2a.783.783,0,0,1,.812.77V28.747a1.485,1.485,0,0,1-1.5,1.475H2.5A1.528,1.528,0,0,1,1,28.747V7.834A.829.829,0,0,1,1.749,7H3.935" transform="translate(-1 -3.371)" fill="rgba(0,0,0,0)" stroke="#fafafa" stroke-linecap="round" stroke-miterlimit="10" stroke-width="2"/>
              <line id="Line_25_1_" x2="13.226" transform="translate(6.813 3.629)" fill="none" stroke="#fafafa" stroke-linecap="round" stroke-miterlimit="10" stroke-width="2"/>
              <path id="Path_612_1_" d="M8.256,7.715H7.123A1.3,1.3,0,0,1,5.8,6.5V2.27A1.291,1.291,0,0,1,7.06,1h1.2A1.3,1.3,0,0,1,9.579,2.21V6.384a1.291,1.291,0,0,1-1.26,1.27C8.319,7.715,8.319,7.715,8.256,7.715Z" transform="translate(-2.777 -1)" fill="rgba(0,0,0,0)" stroke="#fafafa" stroke-linecap="round" stroke-miterlimit="10" stroke-width="2"/>
              <path id="Path_613_1_" d="M35.453,7.715H34.32A1.3,1.3,0,0,1,33,6.5V2.27A1.212,1.212,0,0,1,34.257,1h1.2a1.341,1.341,0,0,1,1.323,1.21V6.384a1.291,1.291,0,0,1-1.26,1.27Z" transform="translate(-13.073 -1)" fill="rgba(0,0,0,0)" stroke="#fafafa" stroke-linecap="round" stroke-miterlimit="10" stroke-width="2"/>
              <rect id="Rectangle_437_1_" width="3.59" height="3.448" stroke-width="1" fill="rgba(0,0,0,0)" stroke="#fafafa" transform="translate(3.023 8.464)"/>
              <rect id="Rectangle_444_1_" width="3.59" height="3.448" stroke-width="1" fill="rgba(0,0,0,0)" stroke="#fafafa" transform="translate(3.023 14.555)"/>
              <rect id="Rectangle_448_1_" width="3.59" height="3.448" stroke-width="1" fill="rgba(0,0,0,0)" stroke="#fafafa" transform="translate(3.023 20.863)"/>
              <rect id="Rectangle_438_1_" width="3.59" height="3.448" stroke-width="1" fill="rgba(0,0,0,0)" stroke="#fafafa" transform="translate(8.793 8.464)"/>
              <rect id="Rectangle_445_1_" width="3.59" height="3.448" stroke-width="1" fill="rgba(0,0,0,0)" stroke="#fafafa" transform="translate(8.793 14.555)"/>
              <rect id="Rectangle_449_1_" width="3.59" height="3.448" stroke-width="1" fill="rgba(0,0,0,0)" stroke="#fafafa" transform="translate(8.793 20.863)"/>
              <rect id="Rectangle_439_1_" width="3.59" height="3.448" stroke-width="1" fill="rgba(0,0,0,0)" stroke="#fafafa" transform="translate(14.593 8.464)"/>
              <rect id="Rectangle_446_1_" width="3.59" height="3.448" stroke-width="1" fill="rgba(0,0,0,0)" stroke="#fafafa" transform="translate(14.593 14.555)"/>
              <rect id="Rectangle_450_1_" width="3.59" height="3.448" stroke-width="1" fill="rgba(0,0,0,0)" stroke="#fafafa" transform="translate(14.593 20.863)"/>
              <rect id="Rectangle_443_1_" width="3.59" height="3.448" stroke-width="1" fill="rgba(0,0,0,0)" stroke="#fafafa" transform="translate(20.491 8.464)"/>
              <rect id="Rectangle_447_1_" width="3.59" height="3.448" stroke-width="1" fill="rgba(0,0,0,0)" stroke="#fafafa" transform="translate(20.491 14.555)"/>
              <rect id="Rectangle_451_1_" width="3.59" height="3.448" stroke-width="1" fill="rgba(0,0,0,0)" stroke="#fafafa" transform="translate(20.491 20.863)"/>
            </g>
          </g>
        </g>
      </g>
    </g>
  </g>
</svg>
